<svg width="834" height="220" viewBox="0 0 834 220" fill="none" xmlns="http://www.w3.org/2000/svg">
<path d="M288.7 146V75H314.3C320.833 75 326.033 76.9 329.9 80.7C333.833 84.4333 335.8 89.2667 335.8 95.2C335.8 100.2 334.4 104.333 331.6 107.6C328.867 110.8 324.9 112.967 319.7 114.1L346.1 146H331.7L305.7 114.8H300.4V146H288.7ZM300.4 104.6H312.9C316.367 104.6 319.1 103.8 321.1 102.2C323.1 100.533 324.1 98.2 324.1 95.2C324.1 92.2 323.1 89.9 321.1 88.3C319.1 86.6333 316.367 85.8 312.9 85.8H300.4V104.6ZM372.598 147C364.998 147 358.731 144.567 353.798 139.7C348.931 134.833 346.498 128.6 346.498 121C346.498 113.6 348.964 107.433 353.898 102.5C358.831 97.5 365.064 95 372.598 95C379.531 95 385.264 97.2 389.798 101.6C394.398 106 396.698 112.067 396.698 119.8C396.698 121.133 396.664 122.333 396.598 123.4H357.298C357.564 127.467 359.131 130.767 361.998 133.3C364.864 135.767 368.431 137 372.698 137C379.098 137 383.864 134.467 386.998 129.4L395.398 135.4C390.598 143.133 382.998 147 372.598 147ZM357.798 115.4H385.598C384.998 111.933 383.431 109.233 380.898 107.3C378.431 105.3 375.531 104.3 372.198 104.3C368.731 104.3 365.631 105.267 362.898 107.2C360.231 109.133 358.531 111.867 357.798 115.4ZM422.629 146L400.029 96H412.229L427.429 131.1L442.729 96H455.029L432.329 146H422.629ZM484.023 147C476.423 147 470.157 144.567 465.223 139.7C460.357 134.833 457.923 128.6 457.923 121C457.923 113.6 460.39 107.433 465.323 102.5C470.257 97.5 476.49 95 484.023 95C490.957 95 496.69 97.2 501.223 101.6C505.823 106 508.123 112.067 508.123 119.8C508.123 121.133 508.09 122.333 508.023 123.4H468.723C468.99 127.467 470.557 130.767 473.423 133.3C476.29 135.767 479.857 137 484.123 137C490.523 137 495.29 134.467 498.423 129.4L506.823 135.4C502.023 143.133 494.423 147 484.023 147ZM469.223 115.4H497.023C496.423 111.933 494.857 109.233 492.323 107.3C489.857 105.3 486.957 104.3 483.623 104.3C480.157 104.3 477.057 105.267 474.323 107.2C471.657 109.133 469.957 111.867 469.223 115.4ZM519.431 146V71H530.431V146H519.431ZM565.713 147C558.913 147 553.179 144.467 548.513 139.4C543.913 134.333 541.613 128.2 541.613 121C541.613 113.8 543.913 107.667 548.513 102.6C553.179 97.5333 558.913 95 565.713 95C569.113 95 572.246 95.7667 575.113 97.3C577.979 98.7667 580.179 100.567 581.713 102.7V96H592.713V146H581.713V139.3C580.179 141.433 577.979 143.267 575.113 144.8C572.246 146.267 569.113 147 565.713 147ZM557.013 132.4C559.813 135.467 563.379 137 567.713 137C572.046 137 575.613 135.467 578.413 132.4C581.213 129.333 582.613 125.533 582.613 121C582.613 116.467 581.213 112.667 578.413 109.6C575.613 106.533 572.046 105 567.713 105C563.379 105 559.813 106.533 557.013 109.6C554.213 112.667 552.813 116.467 552.813 121C552.813 125.533 554.213 129.333 557.013 132.4ZM629.315 146.5C624.248 146.5 620.115 145.1 616.915 142.3C613.782 139.433 612.215 135.3 612.215 129.9V105.8H601.815V96H612.215V82.1H623.215V96H637.515V105.8H623.215V128.1C623.215 131.167 623.882 133.367 625.215 134.7C626.548 135.967 628.682 136.6 631.615 136.6C634.015 136.6 635.982 136.267 637.515 135.6V145.4C635.115 146.133 632.382 146.5 629.315 146.5ZM653.447 85.1C651.447 85.1 649.714 84.4 648.247 83C646.78 81.5333 646.047 79.7667 646.047 77.7C646.047 75.7 646.78 74 648.247 72.6C649.714 71.1333 651.447 70.4 653.447 70.4C655.514 70.4 657.247 71.1333 658.647 72.6C660.047 74 660.747 75.7 660.747 77.7C660.747 79.7667 660.047 81.5333 658.647 83C657.247 84.4 655.514 85.1 653.447 85.1ZM647.947 146V96H658.947V146H647.947ZM714.928 139.5C709.928 144.5 703.728 147 696.328 147C688.928 147 682.695 144.5 677.628 139.5C672.628 134.433 670.128 128.267 670.128 121C670.128 113.733 672.628 107.6 677.628 102.6C682.695 97.5333 688.928 95 696.328 95C703.728 95 709.928 97.5333 714.928 102.6C719.995 107.6 722.528 113.733 722.528 121C722.528 128.267 719.995 134.433 714.928 139.5ZM696.328 136.8C700.661 136.8 704.228 135.3 707.028 132.3C709.895 129.233 711.328 125.467 711.328 121C711.328 116.533 709.895 112.8 707.028 109.8C704.228 106.733 700.661 105.2 696.328 105.2C691.928 105.2 688.295 106.733 685.428 109.8C682.628 112.8 681.228 116.533 681.228 121C681.228 125.467 682.628 129.233 685.428 132.3C688.295 135.3 691.928 136.8 696.328 136.8ZM733.591 146V96H744.591V102.8C747.725 97.6 752.791 95 759.791 95C765.591 95 770.225 96.9 773.691 100.7C777.158 104.5 778.891 109.567 778.891 115.9V146H767.891V117.7C767.891 113.7 766.958 110.6 765.091 108.4C763.225 106.133 760.691 105 757.491 105C753.691 105 750.591 106.433 748.191 109.3C745.791 112.167 744.591 116.2 744.591 121.4V146H733.591Z" fill="black"/>
<rect x="2" y="2" width="216" height="216" rx="55.8906" fill="white" stroke="#DFE2ED" stroke-width="4"/>
<path d="M46 110C94 67.3333 126 67.3333 174 110C126 152.667 94 152.667 46 110Z" stroke="black" stroke-width="12"/>
<circle cx="110" cy="102" r="24" fill="#003BFF"/>
<path d="M46 110C94 67.3333 126 67.3333 174 110C126 152.667 94 152.667 46 110Z" stroke="black" stroke-width="12"/>
</svg>
