<svg width="987" height="286" viewBox="0 0 987 286" fill="none" xmlns="http://www.w3.org/2000/svg">
<g clip-path="url(#clip0_1478_2)">
<g filter="url(#filter0_d_1478_2)">
<path d="M23 102.68C23 37.0635 37.0635 23 102.68 23H183.32C248.936 23 263 37.0635 263 102.68V183.32C263 248.936 248.936 263 183.32 263H102.68C37.0635 263 23 248.936 23 183.32V102.68Z" fill="white"/>
</g>
<path d="M79 143C127 100.333 159 100.333 207 143C159 185.667 127 185.667 79 143Z" stroke="black" stroke-width="12"/>
<circle cx="143" cy="135" r="24" fill="#003BFF"/>
<path d="M79 143C127 100.333 159 100.333 207 143C159 185.667 127 185.667 79 143Z" stroke="black" stroke-width="12"/>
</g>
<path d="M350.136 181V90.12H382.904C391.267 90.12 397.923 92.552 402.872 97.416C407.907 102.195 410.424 108.381 410.424 115.976C410.424 122.376 408.632 127.667 405.048 131.848C401.549 135.944 396.472 138.717 389.816 140.168L423.608 181H405.176L371.896 141.064H365.112V181H350.136ZM365.112 128.008H381.112C385.549 128.008 389.048 126.984 391.608 124.936C394.168 122.803 395.448 119.816 395.448 115.976C395.448 112.136 394.168 109.192 391.608 107.144C389.048 105.011 385.549 103.944 381.112 103.944H365.112V128.008ZM457.525 182.28C447.797 182.28 439.776 179.165 433.461 172.936C427.232 166.707 424.117 158.728 424.117 149C424.117 139.528 427.274 131.635 433.589 125.32C439.904 118.92 447.882 115.72 457.525 115.72C466.4 115.72 473.738 118.536 479.541 124.168C485.429 129.8 488.373 137.565 488.373 147.464C488.373 149.171 488.33 150.707 488.245 152.072H437.941C438.282 157.277 440.288 161.501 443.957 164.744C447.626 167.901 452.192 169.48 457.653 169.48C465.845 169.48 471.946 166.237 475.957 159.752L486.709 167.432C480.565 177.331 470.837 182.28 457.525 182.28ZM438.581 141.832H474.165C473.397 137.395 471.392 133.939 468.149 131.464C464.992 128.904 461.28 127.624 457.013 127.624C452.576 127.624 448.608 128.861 445.109 131.336C441.696 133.811 439.52 137.309 438.581 141.832ZM521.565 181L492.637 117H508.253L527.709 161.928L547.293 117H563.037L533.981 181H521.565ZM600.15 182.28C590.422 182.28 582.401 179.165 576.086 172.936C569.857 166.707 566.742 158.728 566.742 149C566.742 139.528 569.899 131.635 576.214 125.32C582.529 118.92 590.507 115.72 600.15 115.72C609.025 115.72 616.363 118.536 622.166 124.168C628.054 129.8 630.998 137.565 630.998 147.464C630.998 149.171 630.955 150.707 630.87 152.072H580.566C580.907 157.277 582.913 161.501 586.582 164.744C590.251 167.901 594.817 169.48 600.278 169.48C608.47 169.48 614.571 166.237 618.582 159.752L629.334 167.432C623.19 177.331 613.462 182.28 600.15 182.28ZM581.206 141.832H616.79C616.022 137.395 614.017 133.939 610.774 131.464C607.617 128.904 603.905 127.624 599.638 127.624C595.201 127.624 591.233 128.861 587.734 131.336C584.321 133.811 582.145 137.309 581.206 141.832ZM645.472 181V85H659.552V181H645.472ZM704.712 182.28C696.008 182.28 688.669 179.037 682.696 172.552C676.808 166.067 673.864 158.216 673.864 149C673.864 139.784 676.808 131.933 682.696 125.448C688.669 118.963 696.008 115.72 704.712 115.72C709.064 115.72 713.075 116.701 716.744 118.664C720.413 120.541 723.229 122.845 725.192 125.576V117H739.272V181H725.192V172.424C723.229 175.155 720.413 177.501 716.744 179.464C713.075 181.341 709.064 182.28 704.712 182.28ZM693.576 163.592C697.16 167.517 701.725 169.48 707.272 169.48C712.819 169.48 717.384 167.517 720.968 163.592C724.552 159.667 726.344 154.803 726.344 149C726.344 143.197 724.552 138.333 720.968 134.408C717.384 130.483 712.819 128.52 707.272 128.52C701.725 128.52 697.16 130.483 693.576 134.408C689.992 138.333 688.2 143.197 688.2 149C688.2 154.803 689.992 159.667 693.576 163.592ZM786.123 181.64C779.638 181.64 774.347 179.848 770.251 176.264C766.24 172.595 764.235 167.304 764.235 160.392V129.544H750.923V117H764.235V99.208H778.315V117H796.619V129.544H778.315V158.088C778.315 162.013 779.168 164.829 780.875 166.536C782.582 168.157 785.312 168.968 789.067 168.968C792.139 168.968 794.656 168.541 796.619 167.688V180.232C793.547 181.171 790.048 181.64 786.123 181.64ZM817.012 103.048C814.452 103.048 812.233 102.152 810.356 100.36C808.479 98.4827 807.54 96.2213 807.54 93.576C807.54 91.016 808.479 88.84 810.356 87.048C812.233 85.1707 814.452 84.232 817.012 84.232C819.657 84.232 821.876 85.1707 823.668 87.048C825.46 88.84 826.356 91.016 826.356 93.576C826.356 96.2213 825.46 98.4827 823.668 100.36C821.876 102.152 819.657 103.048 817.012 103.048ZM809.972 181V117H824.052V181H809.972ZM895.708 172.68C889.308 179.08 881.372 182.28 871.9 182.28C862.428 182.28 854.449 179.08 847.964 172.68C841.564 166.195 838.364 158.301 838.364 149C838.364 139.699 841.564 131.848 847.964 125.448C854.449 118.963 862.428 115.72 871.9 115.72C881.372 115.72 889.308 118.963 895.708 125.448C902.193 131.848 905.436 139.699 905.436 149C905.436 158.301 902.193 166.195 895.708 172.68ZM871.9 169.224C877.447 169.224 882.012 167.304 885.596 163.464C889.265 159.539 891.1 154.717 891.1 149C891.1 143.283 889.265 138.504 885.596 134.664C882.012 130.739 877.447 128.776 871.9 128.776C866.268 128.776 861.617 130.739 857.948 134.664C854.364 138.504 852.572 143.283 852.572 149C852.572 154.717 854.364 159.539 857.948 163.464C861.617 167.304 866.268 169.224 871.9 169.224ZM919.597 181V117H933.677V125.704C937.688 119.048 944.173 115.72 953.133 115.72C960.557 115.72 966.488 118.152 970.925 123.016C975.362 127.88 977.581 134.365 977.581 142.472V181H963.501V144.776C963.501 139.656 962.306 135.688 959.917 132.872C957.528 129.971 954.285 128.52 950.189 128.52C945.325 128.52 941.357 130.355 938.285 134.024C935.213 137.693 933.677 142.856 933.677 149.512V181H919.597Z" fill="black"/>
<defs>
<filter id="filter0_d_1478_2" x="7" y="11" width="272" height="272" filterUnits="userSpaceOnUse" color-interpolation-filters="sRGB">
<feFlood flood-opacity="0" result="BackgroundImageFix"/>
<feColorMatrix in="SourceAlpha" type="matrix" values="0 0 0 0 0 0 0 0 0 0 0 0 0 0 0 0 0 0 127 0" result="hardAlpha"/>
<feOffset dy="4"/>
<feGaussianBlur stdDeviation="8"/>
<feComposite in2="hardAlpha" operator="out"/>
<feColorMatrix type="matrix" values="0 0 0 0 0 0 0 0 0 0 0 0 0 0 0 0 0 0 0.05 0"/>
<feBlend mode="normal" in2="BackgroundImageFix" result="effect1_dropShadow_1478_2"/>
<feBlend mode="normal" in="SourceGraphic" in2="effect1_dropShadow_1478_2" result="shape"/>
</filter>
<clipPath id="clip0_1478_2">
<rect width="286" height="286" fill="white"/>
</clipPath>
</defs>
</svg>
